<?xml version="1.0" encoding="utf-8"?>
<!-- Generator: Adobe Illustrator 23.1.0, SVG Export Plug-In . SVG Version: 6.00 Build 0)  -->
<svg version="1.1" id="Слой_1" xmlns="http://www.w3.org/2000/svg" xmlns:xlink="http://www.w3.org/1999/xlink" x="0px" y="0px"
	 width="1000px" height="1000px" viewBox="0 0 1000 1000" enable-background="new 0 0 1000 1000" xml:space="preserve">
<g id="LOGO_3.1">
	<g id="logo_3.1">
		<g id="logo_icon_3_3_">
			<g>
				<path d="M102.312,477.41C121.457,467.838,72,426.358,72,426.358S83.168,486.983,102.312,477.41z"/>
				<path d="M103.804,523.369c-17.42-12.437-30.925,50.683-30.925,50.683S121.224,535.806,103.804,523.369z"/>
				<path d="M31.006,502.244c0,0,58.068,20.692,59.369-0.673C91.676,480.207,31.006,502.244,31.006,502.244z"/>
				<path d="M64.23,444.099c-1.819-6.812-3.382-13.72-4.706-20.724c-22.558,16.097-37.826,41.751-39.916,71.042
					c6.605-2.377,13.29-4.515,20.054-6.413C42.709,470.646,51.595,455.298,64.23,444.099z"/>
				<path d="M115.075,424.763c0.543,0,1.069,0,1.595,0.032c0.527-0.032,1.053-0.032,1.595-0.032c8.727,0,17.102,1.452,24.904,4.132
					c4.962-4.962,10.115-9.764,15.444-14.374c-12.268-5.711-25.925-8.902-40.347-8.902c-0.527,0-1.069,0-1.595,0.016
					c-0.527-0.016-1.069-0.016-1.595-0.016c-14.422,0-28.079,3.191-40.347,8.902c5.329,4.611,10.482,9.413,15.444,14.374
					C97.973,426.215,106.348,424.763,115.075,424.763z"/>
				<path d="M40.427,518.459c-6.844-1.707-13.657-3.685-20.421-5.935c3.271,28.222,18.842,52.711,41.193,67.947
					c1.228-6.94,2.712-13.832,4.435-20.66C53.206,549.298,44.161,534.892,40.427,518.459z"/>
				<path d="M77.297,480.665c-2.808-6.748-5.425-13.609-7.786-20.564c-6.397,6.796-11.247,15.044-14.023,24.202
					C62.699,482.834,69.974,481.622,77.297,480.665z"/>
				<path d="M55.95,521.459c2.952,8.87,7.849,16.847,14.215,23.404c2.09-6.828,4.467-13.593,7.115-20.277
					C70.165,523.788,63.05,522.735,55.95,521.459z"/>
				<path d="M116.591,546.777c-3.893,5.329-7.993,10.561-12.3,15.667c3.813,0.734,7.738,1.117,11.742,1.117h0.638h0.638
					c4.004,0,7.929-0.383,11.742-1.117c-4.307-5.105-8.408-10.338-12.3-15.667c-0.032,0.032-0.064,0.08-0.08,0.112
					C116.655,546.857,116.623,546.809,116.591,546.777z"/>
				<path d="M131.029,477.41c19.145,9.572,30.312-51.052,30.312-51.052S111.884,467.838,131.029,477.41z"/>
				<path d="M129.537,523.369c-17.42,12.437,30.925,50.683,30.925,50.683S146.957,510.932,129.537,523.369z"/>
				<path d="M142.966,501.571c1.301,21.365,59.369,0.673,59.369,0.673S141.664,480.207,142.966,501.571z"/>
				<path d="M193.679,488.004c6.764,1.898,13.449,4.036,20.054,6.413c-2.09-29.291-17.358-54.945-39.916-71.042
					c-1.324,7.004-2.888,13.912-4.706,20.724C181.746,455.298,190.632,470.646,193.679,488.004z"/>
				<path d="M167.707,559.811c1.723,6.828,3.207,13.72,4.435,20.66c22.351-15.236,37.922-39.725,41.193-67.947
					c-6.764,2.249-13.577,4.228-20.421,5.935C189.18,534.892,180.135,549.298,167.707,559.811z"/>
				<path d="M140.633,574.601c-7.067,2.154-14.582,3.318-22.367,3.318c-0.527,0-1.069,0-1.595-0.032
					c-0.527,0.032-1.069,0.032-1.595,0.032c-7.785,0-15.3-1.165-22.367-3.318c-4.866,5.089-9.939,10.035-15.22,14.789
					c11.535,4.946,24.25,7.674,37.587,7.674c0.543,0,1.069,0,1.595-0.016c0.527,0.016,1.053,0.016,1.595,0.016
					c13.337,0,26.053-2.728,37.587-7.674C150.572,584.636,145.499,579.69,140.633,574.601z"/>
				<circle cx="116.67" cy="499.746" r="12.763"/>
				<path d="M177.853,484.302c-2.776-9.158-7.626-17.406-14.023-24.202c-2.361,6.956-4.978,13.816-7.786,20.564
					C163.367,481.622,170.642,482.834,177.853,484.302z"/>
				<path d="M156.06,524.586c2.649,6.685,5.026,13.449,7.115,20.277c6.366-6.557,11.263-14.534,14.215-23.404
					C170.291,522.735,163.176,523.788,156.06,524.586z"/>
				<path d="M129.21,441.977c-4.02-0.83-8.168-1.26-12.428-1.26h-0.112h-0.112c-4.26,0-8.408,0.431-12.428,1.26
					c4.339,5.073,8.535,10.29,12.539,15.667C120.675,452.267,124.871,447.05,129.21,441.977z"/>
			</g>
			<path d="M24.139,421.795l8.169,6.477c-3.366,4.196-6.078,8.918-8.009,14.039h-0.16V421.795z"/>
			<path d="M52.855,412v0.798c-4.084,1.691-7.897,3.893-11.375,6.541L34.843,412H52.855z"/>
			<path d="M24.139,585.673l8.169-6.477c-3.366-4.196-6.078-8.918-8.009-14.039h-0.16V585.673z"/>
			<path d="M52.855,595.468v-0.798c-4.084-1.691-7.897-3.893-11.375-6.541l-6.637,7.339H52.855z"/>
			<path d="M210.798,585.673l-8.169-6.477c3.366-4.196,6.078-8.918,8.009-14.039h0.16V585.673z"/>
			<path d="M182.081,595.468v-0.798c4.084-1.691,7.897-3.893,11.375-6.541l6.637,7.339H182.081z"/>
			<path d="M210.798,421.795l-8.169,6.477c3.366,4.196,6.078,8.918,8.009,14.039h0.16V421.795z"/>
			<path d="M182.081,412v0.798c4.084,1.691,7.897,3.893,11.375,6.541l6.637-7.339H182.081z"/>
		</g>
		<g id="logo_3_-_text">
			<text transform="matrix(1 0 0 1 235.5888 491.8779)"><tspan x="0" y="0" font-family="'FiraSans-Light'" font-size="110px">Ф</tspan><tspan x="87.56" y="0" font-family="'FiraSans-Light'" font-size="110px">аскро</tspan><tspan x="382.468" y="0" font-family="'FiraSans-Light'" font-size="110px">в</tspan><tspan x="443.296" y="0" font-family="'FiraSans-Light'" font-size="110px" letter-spacing="7">с</tspan><tspan x="502.035" y="0" font-family="'FiraSans-Light'" font-size="110px" letter-spacing="1">т</tspan><tspan x="551.315" y="0" font-family="'FiraSans-Light'" font-size="110px">рой</tspan></text>
			<line stroke="#000000" stroke-width="1.9864" stroke-miterlimit="10" x1="242.99" y1="524.29" x2="972.99" y2="524.29"/>
			<text transform="matrix(1 0 0 1 239.5956 586.8193)" font-family="'FiraSans-Light'" font-size="47.6px" letter-spacing="1">ФАСАД КРОВЛЯ СТРОИТЕЛЬСТВО</text>
		</g>
	</g>
</g>
</svg>
